<svg id="SvgjsSvg1009" xmlns="http://www.w3.org/2000/svg" version="1.1" xmlns:xlink="http://www.w3.org/1999/xlink" xmlns:svgjs="http://svgjs.com/svgjs" width="20" height="20" viewBox="0 0 20 20"><title>Shape</title><desc>Created with Avocode.</desc><defs id="SvgjsDefs1010"></defs><path id="SvgjsPath1011" d="M344.73 7.75H331.62L330.99 5C330.87 4.37 330.37 4 329.75 4H326V6.5H328.75L330.99 16.73C331.12 17.36 331.62 17.73 332.24 17.73H342.23C342.73 17.73 343.23 17.36 343.35 16.86L345.85 9.37C346.1 8.739999999999998 345.73 7.749999999999999 344.73 7.749999999999999Z " fill="#c7c7c7" fill-opacity="1" transform="matrix(1,0,0,1,-326,-4)"></path><path id="SvgjsPath1012" d="M330 21.5C330 20.11929 331.11929 19 332.5 19C333.88071 19 335 20.11929 335 21.5C335 22.88071 333.88071 24 332.5 24C331.11929 24 330 22.88071 330 21.5Z " fill="#c7c7c7" fill-opacity="1" transform="matrix(1,0,0,1,-326,-4)"></path><path id="SvgjsPath1013" d="M340 21.5C340 20.11929 341.11929 19 342.5 19C343.88071 19 345 20.11929 345 21.5C345 22.88071 343.88071 24 342.5 24C341.11929 24 340 22.88071 340 21.5Z " fill="#c7c7c7" fill-opacity="1" transform="matrix(1,0,0,1,-326,-4)"></path></svg>