<?xml version="1.0" encoding="UTF-8" standalone="no"?>
<svg width="18px" height="17px" viewBox="0 0 18 17" version="1.1" xmlns="http://www.w3.org/2000/svg" xmlns:xlink="http://www.w3.org/1999/xlink">
    <!-- Generator: Sketch 42 (36781) - http://www.bohemiancoding.com/sketch -->
    <title>ui-24px-glyph-2_chat-content</title>
    <desc>Created with Sketch.</desc>
    <defs></defs>
    <g id="Symbols" stroke="none" stroke-width="1" fill="none" fill-rule="evenodd">
        <g id="footer_arial" transform="translate(-1024.000000, -132.000000)" fill="#FFFFFF">
            <g id="ui-24px-glyph-2_chat-content" transform="translate(1024.000000, 132.000000)">
                <path d="M17.25,0 L0.75,0 C0.3,0 0,0.309090909 0,0.772727273 L0,12.3636364 C0,12.8272727 0.3,13.1363636 0.75,13.1363636 L5.625,13.1363636 L8.4,16.6909091 C8.55,16.8454545 8.775,17 9,17 C9.225,17 9.45,16.9227273 9.6,16.6909091 L12.375,13.1363636 L17.25,13.1363636 C17.7,13.1363636 18,12.8272727 18,12.3636364 L18,0.772727273 C18,0.309090909 17.7,0 17.25,0 L17.25,0 Z M10.5,9.27272727 L4.5,9.27272727 L4.5,7.72727273 L10.5,7.72727273 L10.5,9.27272727 L10.5,9.27272727 Z M13.5,5.40909091 L4.5,5.40909091 L4.5,3.86363636 L13.5,3.86363636 L13.5,5.40909091 L13.5,5.40909091 Z" id="Shape"></path>
            </g>
        </g>
    </g>
</svg>