<svg id="SvgjsSvg1014" xmlns="http://www.w3.org/2000/svg" version="1.1" xmlns:xlink="http://www.w3.org/1999/xlink" xmlns:svgjs="http://svgjs.com/svgjs" width="23.5" height="22" viewBox="0 0 23.5 22"><title>Shape</title><desc>Created with Avocode.</desc><defs id="SvgjsDefs1015"></defs><path id="SvgjsPath1016" d="M159 552H168L169 556L173 558V564H167.83 " fill-opacity="0" fill="#ffffff" stroke-dashoffset="0" stroke-linejoin="miter" stroke-linecap="butt" stroke-opacity="1" stroke="#d43b3b" stroke-miterlimit="50" stroke-width="2" transform="matrix(1,0,0,1,-150,-547)"></path><path id="SvgjsPath1017" d="M151 564V548H159V564Z " fill-opacity="0" fill="#ffffff" stroke-dashoffset="0" stroke-linejoin="miter" stroke-linecap="butt" stroke-opacity="1" stroke="#d43b3b" stroke-miterlimit="50" stroke-width="2" transform="matrix(1,0,0,1,-150,-547)"></path><path id="SvgjsPath1018" d="M162 565C162 563.34315 163.34315 562 165 562C166.65685 562 168 563.34315 168 565C168 566.65685 166.65685 568 165 568C163.34315 568 162 566.65685 162 565Z " fill-opacity="0" fill="#ffffff" stroke-dashoffset="0" stroke-linejoin="miter" stroke-linecap="butt" stroke-opacity="1" stroke="#d43b3b" stroke-miterlimit="50" stroke-width="2" transform="matrix(1,0,0,1,-150,-547)"></path><path id="SvgjsPath1019" d="M164 555V557H166 " fill-opacity="0" fill="#ffffff" stroke-dashoffset="0" stroke-linejoin="miter" stroke-linecap="butt" stroke-opacity="1" stroke="#d43b3b" stroke-miterlimit="50" stroke-width="2" transform="matrix(1,0,0,1,-150,-547)"></path></svg>