<svg id="SvgjsSvg1020" xmlns="http://www.w3.org/2000/svg" version="1.1" xmlns:xlink="http://www.w3.org/1999/xlink" xmlns:svgjs="http://svgjs.com/svgjs" width="24" height="23.707106781186553" viewBox="0 0 24 23.707106781186553"><title>Shape</title><desc>Created with Avocode.</desc><defs id="SvgjsDefs1021"></defs><path id="SvgjsPath1022" d="M506 563L515 554 " fill-opacity="0" fill="#ffffff" stroke-dashoffset="0" stroke-linejoin="miter" stroke-linecap="butt" stroke-opacity="1" stroke="#d43b3b" stroke-miterlimit="50" stroke-width="2" transform="matrix(1,0,0,1,-503,-545)"></path><path id="SvgjsPath1023" d="M515 568L524 559 " fill-opacity="0" fill="#ffffff" stroke-dashoffset="0" stroke-linejoin="miter" stroke-linecap="butt" stroke-opacity="1" stroke="#d43b3b" stroke-miterlimit="50" stroke-width="2" transform="matrix(1,0,0,1,-503,-545)"></path><path id="SvgjsPath1024" d="M508 568L522 554 " fill-opacity="0" fill="#ffffff" stroke-dashoffset="0" stroke-linejoin="miter" stroke-linecap="butt" stroke-opacity="1" stroke="#d43b3b" stroke-miterlimit="50" stroke-width="2" transform="matrix(1,0,0,1,-503,-545)"></path><path id="SvgjsPath1025" d="M524 554V568H506V554 " fill-opacity="0" fill="#ffffff" stroke-dashoffset="0" stroke-linejoin="miter" stroke-linecap="butt" stroke-opacity="1" stroke="#d43b3b" stroke-miterlimit="50" stroke-width="2" transform="matrix(1,0,0,1,-503,-545)"></path><path id="SvgjsPath1026" d="M509 548C509 546.9 509.9 546 511 546C514 546 515 550 515 550C515 550 512.1 550 511 550C509.9 550 509 549.1 509 548Z " fill-opacity="0" fill="#ffffff" stroke-dashoffset="0" stroke-linejoin="miter" stroke-linecap="butt" stroke-opacity="1" stroke="#d43b3b" stroke-miterlimit="50" stroke-width="2" transform="matrix(1,0,0,1,-503,-545)"></path><path id="SvgjsPath1027" d="M521 548C521 546.9 520.1 546 519 546C516 546 515 550 515 550C515 550 517.9 550 519 550C520.1 550 521 549.1 521 548Z " fill-opacity="0" fill="#ffffff" stroke-dashoffset="0" stroke-linejoin="miter" stroke-linecap="butt" stroke-opacity="1" stroke="#d43b3b" stroke-miterlimit="50" stroke-width="2" transform="matrix(1,0,0,1,-503,-545)"></path><path id="SvgjsPath1028" d="M504 554V550H526V554Z " fill-opacity="0" fill="#ffffff" stroke-dashoffset="0" stroke-linejoin="miter" stroke-linecap="butt" stroke-opacity="1" stroke="#d43b3b" stroke-miterlimit="50" stroke-width="2" transform="matrix(1,0,0,1,-503,-545)"></path></svg>