<svg id="SvgjsSvg1029" xmlns="http://www.w3.org/2000/svg" version="1.1" xmlns:xlink="http://www.w3.org/1999/xlink" xmlns:svgjs="http://svgjs.com/svgjs" width="24" height="24" viewBox="0 0 24 24"><title>Shape</title><desc>Created with Avocode.</desc><defs id="SvgjsDefs1030"></defs><path id="SvgjsPath1031" d="M848 552H870 " fill-opacity="0" fill="#ffffff" stroke-dashoffset="0" stroke-linejoin="miter" stroke-linecap="butt" stroke-opacity="1" stroke="#d43b3b" stroke-miterlimit="50" stroke-width="2" transform="matrix(1,0,0,1,-847,-547)"></path><path id="SvgjsPath1032" d="M848 556H870 " fill-opacity="0" fill="#ffffff" stroke-dashoffset="0" stroke-linejoin="miter" stroke-linecap="butt" stroke-opacity="1" stroke="#d43b3b" stroke-miterlimit="50" stroke-width="2" transform="matrix(1,0,0,1,-847,-547)"></path><path id="SvgjsPath1033" d="M860 564H850C848.9 564 848 563.1 848 562V550C848 548.9 848.9 548 850 548H863H868C869.1 548 870 548.9 870 550V562C870 563.1 869.1 564 868 564 " fill-opacity="0" fill="#ffffff" stroke-dashoffset="0" stroke-linejoin="miter" stroke-linecap="butt" stroke-opacity="1" stroke="#d43b3b" stroke-miterlimit="50" stroke-width="2" transform="matrix(1,0,0,1,-847,-547)"></path><path id="SvgjsPath1034" d="M852 560H857 " fill-opacity="0" fill="#ffffff" stroke-dashoffset="0" stroke-linejoin="miter" stroke-linecap="butt" stroke-opacity="1" stroke="#d43b3b" stroke-miterlimit="50" stroke-width="2" transform="matrix(1,0,0,1,-847,-547)"></path><path id="SvgjsPath1035" d="M860 570V563H868V570Z " fill-opacity="0" fill="#ffffff" stroke-dashoffset="0" stroke-linejoin="miter" stroke-linecap="butt" stroke-opacity="1" stroke="#d43b3b" stroke-miterlimit="50" stroke-width="2" transform="matrix(1,0,0,1,-847,-547)"></path><path id="SvgjsPath1036" d="M862 563V561C862 559.9 862.9 559 864 559V559C865.1 559 866 559.9 866 561V563 " fill-opacity="0" fill="#ffffff" stroke-dashoffset="0" stroke-linejoin="miter" stroke-linecap="butt" stroke-opacity="1" stroke="#d43b3b" stroke-miterlimit="50" stroke-width="2" transform="matrix(1,0,0,1,-847,-547)"></path><path id="SvgjsPath1037" d="M864 566V567 " fill-opacity="0" fill="#ffffff" stroke-dashoffset="0" stroke-linejoin="miter" stroke-linecap="butt" stroke-opacity="1" stroke="#d43b3b" stroke-miterlimit="50" stroke-width="2" transform="matrix(1,0,0,1,-847,-547)"></path></svg>