<svg id="SvgjsSvg1000" xmlns="http://www.w3.org/2000/svg" version="1.1" xmlns:xlink="http://www.w3.org/1999/xlink" xmlns:svgjs="http://svgjs.com/svgjs" width="20" height="20" viewBox="0 0 20 20"><title>Shape</title><desc>Created with Avocode.</desc><defs id="SvgjsDefs1001"></defs><path id="SvgjsPath1007" d="M255 15.67C257.75 15.67 260 13.42 260 10.67V9C260 6.25 257.75 4 255 4C252.25 4 250 6.25 250 9V10.67C250 13.42 252.25 15.67 255 15.67Z " fill="#c7c7c7" fill-opacity="1" transform="matrix(1,0,0,1,-245,-4)"></path><path id="SvgjsPath1008" d="M259.17 17H250.83C247.58 17 245 19.58 245 22.83C245 23.33 245.33 23.669999999999998 245.83 23.669999999999998H264.17C264.67 23.669999999999998 265 23.33 265 22.83C265 19.58 262.42 17 259.17 17Z " fill="#c7c7c7" fill-opacity="1" transform="matrix(1,0,0,1,-245,-4)"></path></svg>